<svg xmlns="http://www.w3.org/2000/svg" width="12" height="5" viewBox="0 0 12 5">
    <path fill="#000" fill-rule="nonzero" d="M3.301 2.873c-.629 0-1.183.184-1.663.553-.48.368-.86.827-1.14 1.376-.088.154-.192.218-.315.192C.061 4.97 0 4.88 0 4.724v-2.7A3.78 3.78 0 0 1 1.48.533 4.076 4.076 0 0 1 3.485.018a4.67 4.67 0 0 1 3.013 1.055c.437.343.803.6 1.1.771.297.172.664.257 1.1.257a2.7 2.7 0 0 0 1.664-.54c.48-.36.86-.814 1.14-1.363.088-.154.192-.218.315-.192.122.025.183.115.183.27v2.7a3.78 3.78 0 0 1-1.48 1.491 4.076 4.076 0 0 1-2.005.515c-.559 0-1.105-.09-1.637-.27a4.21 4.21 0 0 1-1.402-.785c-.42-.377-.782-.647-1.087-.81-.306-.163-.668-.244-1.088-.244z"/>
</svg>
