<svg xmlns="http://www.w3.org/2000/svg" width="214" height="203" viewBox="0 0 214 203">
    <g fill="#32346E" fill-rule="nonzero" stroke="#32346E" stroke-width="3" opacity=".05">
        <path d="M107 49.059c-25.238 0-40.915 13.445-40.915 35.227 0 2.475 1.929 4.482 4.307 4.482h73.216c2.378 0 4.307-2.007 4.307-4.482 0-21.737-15.677-35.227-40.915-35.227zM75 79.804c2.843-20.123 24.937-21.782 32-21.782 7.063 0 29.157 1.659 32 21.782H75zM107 2c-11.298 0-20.457 9.531-20.457 21.289.023 11.747 9.168 21.263 20.457 21.288 11.298 0 20.457-9.531 20.457-21.288C127.457 11.53 118.298 2 107 2zm0 33.613c-6.541 0-11.844-5.518-11.844-12.324 0-6.807 5.303-12.325 11.844-12.325 6.541 0 11.844 5.518 11.844 12.325 0 6.806-5.303 12.324-11.844 12.324zM42.915 161.664C17.677 161.664 2 175.109 2 196.89c0 2.475 1.928 4.482 4.307 4.482h73.216c2.378 0 4.306-2.007 4.306-4.482 0-21.737-15.676-35.227-40.914-35.227zm-32 30.745c2.843-20.123 24.893-21.782 32-21.782 7.106 0 29.157 1.659 32 21.782h-64zM42.915 114.605c-11.299 0-20.458 9.531-20.458 21.289.024 11.747 9.169 21.263 20.458 21.288 11.298 0 20.457-9.531 20.457-21.288 0-11.758-9.159-21.289-20.457-21.289zm0 33.613c-6.541 0-11.844-5.518-11.844-12.324 0-6.807 5.303-12.325 11.844-12.325 6.54 0 11.843 5.518 11.843 12.325 0 6.806-5.302 12.324-11.843 12.324zM171.085 161.664c-25.238 0-40.914 13.445-40.914 35.227 0 2.475 1.928 4.482 4.306 4.482h73.216c2.379 0 4.307-2.007 4.307-4.482 0-21.737-15.677-35.227-40.915-35.227zm-32 30.745c2.843-20.123 24.894-21.782 32-21.782 7.107 0 29.157 1.659 32 21.782h-64zM171.085 114.605c-11.298 0-20.457 9.531-20.457 21.289.024 11.747 9.169 21.263 20.457 21.288 11.299 0 20.458-9.531 20.458-21.288 0-11.758-9.16-21.289-20.458-21.289zm0 33.613c-6.54 0-11.843-5.518-11.843-12.324 0-6.807 5.302-12.325 11.843-12.325s11.844 5.518 11.844 12.325c0 6.806-5.303 12.324-11.844 12.324zM129.266 153.91l-17.96-18.778v-26.443c0-2.475-1.928-4.482-4.306-4.482s-4.307 2.007-4.307 4.482v26.443l-17.96 18.689c-1.7 1.745-1.72 4.594-.042 6.364a4.206 4.206 0 0 0 6.115.045L107 143.333l16.194 16.897c1.806 1.61 4.525 1.39 6.072-.49a4.62 4.62 0 0 0 0-5.83z"/>
    </g>
</svg>
