<svg xmlns="http://www.w3.org/2000/svg" width="1024" height="640" viewBox="0 0 1024 640">
    <g fill="none" fill-rule="evenodd">
        <path fill="#FFF" d="M0 0h1024v640H0z"/>
        <g opacity=".04">
            <path fill="#17CFA6" d="M735 350h269c11.046 0 20 8.954 20 20v60c0 11.046-8.954 20-20 20H735c-11.046 0-20-8.954-20-20v-60c0-11.046 8.954-20 20-20z"/>
            <path fill="#EB605C" d="M874 223h130c11.046 0 20 8.954 20 20v60c0 11.046-8.954 20-20 20H874c-11.046 0-20-8.954-20-20v-60c0-11.046 8.954-20 20-20z"/>
            <path fill="#00ADED" d="M735 96h228c11.046 0 20 8.954 20 20v60c0 11.046-8.954 20-20 20H735c-11.046 0-20-8.954-20-20v-60c0-11.046 8.954-20 20-20z"/>
            <path fill="#32346E" d="M864 0c35.203 59.642 88.537 87.897 160 84.766V0H864z"/>
        </g>
        <g opacity=".04">
            <path fill="#17CFA6" d="M289 290H20c-11.046 0-20-8.954-20-20v-60c0-11.046 8.954-20 20-20h269c11.046 0 20 8.954 20 20v60c0 11.046-8.954 20-20 20z"/>
            <path fill="#EB605C" d="M150 417H20c-11.046 0-20-8.954-20-20v-60c0-11.046 8.954-20 20-20h130c11.046 0 20 8.954 20 20v60c0 11.046-8.954 20-20 20z"/>
            <path fill="#00ADED" d="M289 544H61c-11.046 0-20-8.954-20-20v-60c0-11.046 8.954-20 20-20h228c11.046 0 20 8.954 20 20v60c0 11.046-8.954 20-20 20z"/>
            <path fill="#32346E" d="M160 640c-35.203-59.642-88.537-87.897-160-84.766V640h160z"/>
        </g>
    </g>
</svg>
