<svg xmlns="http://www.w3.org/2000/svg" width="176" height="206" viewBox="0 0 176 206">
    <g fill="#32346E" fill-rule="nonzero" opacity=".05">
        <path stroke="#32346E" stroke-width="5" d="M171.847 38.84L136.824 4.142A3.956 3.956 0 0 0 134.042 3H14.806C8.296 3 3 8.247 3 14.696v176.219c0 6.449 5.296 11.696 11.806 11.696h146.388c6.51 0 11.806-5.247 11.806-11.696V41.596a3.88 3.88 0 0 0-1.153-2.756zm-33.87-22.529l21.587 21.387h-17.652c-2.17 0-3.936-1.75-3.936-3.899V16.311zm27.153 174.604c0 2.15-1.766 3.898-3.936 3.898H14.806c-2.17 0-3.936-1.749-3.936-3.898V14.695c0-2.149 1.766-3.898 3.936-3.898h115.3V33.8c0 6.45 5.296 11.696 11.806 11.696h23.218v145.42z"/>
        <path d="M147.815 65.378H28.185c-2.173 0-3.935 1.746-3.935 3.899v74.854c0 2.153 1.762 3.898 3.935 3.898h119.63c2.173 0 3.935-1.745 3.935-3.898V69.277c0-2.153-1.763-3.899-3.935-3.899zm-99.167 74.854H32.12v-17.154h16.528v17.154zm0-24.951H32.12V98.127h16.528v17.154zm0-24.952H32.12V73.175h16.528V90.33zm51.158 49.903H56.519v-17.154h43.287v17.154zm0-24.951H56.519V98.127h43.287v17.154zm0-24.952H56.519V73.175h43.287V90.33zm44.074 49.903h-36.204v-17.154h36.204v17.154zm0-24.951h-36.204V98.127h36.204v17.154zm0-24.952h-36.204V73.175h36.204V90.33z"/>
    </g>
</svg>
