<svg xmlns="http://www.w3.org/2000/svg" width="20" height="20" viewBox="0 0 20 20">
    <g fill="#32346E" fill-rule="nonzero">
        <path d="M18.693.932A3.176 3.176 0 0 0 16.42 0H3.24C2.352 0 1.557.364.966.932a3.176 3.176 0 0 0-.932 2.273V16.773c0 .886.364 1.682.932 2.272.59.591 1.386.932 2.273.932H16.42V20c.887 0 1.682-.364 2.273-.932.591-.59.932-1.386.932-2.273V3.205c0-.887-.364-1.682-.932-2.273zm-.273 9.386l-3.34-3.363a.61.61 0 0 0-.864 0l-5.068 5.09-3.432-3.431a.61.61 0 0 0-.864 0l-3.59 3.613V3.205c0-.546.204-1.023.568-1.387.363-.363.863-.59 1.409-.59H16.42c.546 0 1.046.227 1.41.59.363.364.59.864.59 1.41v7.09z"/>
        <circle cx="9.034" cy="6.841" r="1.636" stroke="#32346E" stroke-width=".5"/>
    </g>
</svg>
