<svg xmlns="http://www.w3.org/2000/svg" width="200" height="199" viewBox="0 0 200 199">
    <g fill="none" fill-rule="nonzero">
        <path fill="#32346E" d="M93.108.917l-10.471 4.31c-5.599 2.304-8.249 8.748-5.94 14.295l2.692 6.486c-5.257 3.883-9.83 8.491-13.762 13.74l-6.497-2.689a10.958 10.958 0 0 0-8.377 0 10.931 10.931 0 0 0-5.94 5.932l-4.36 10.454c-2.308 5.59.342 11.99 5.94 14.295l9.617 3.968a4.2 4.2 0 0 0 5.514-2.304c.897-2.177-.129-4.609-2.308-5.505l-9.617-3.968c-1.282-.512-1.88-2.006-1.367-3.286l4.36-10.454a2.521 2.521 0 0 1 1.367-1.366c.598-.256 1.282-.256 1.923 0l9.616 3.969c1.881.768 4.018.128 5.13-1.536A57.877 57.877 0 0 1 86.91 31c1.667-1.11 2.35-3.285 1.581-5.12l-3.974-9.601a2.544 2.544 0 0 1 1.367-3.286l10.471-4.31c.599-.256 1.283-.256 1.924 0 .598.256 1.111.726 1.367 1.366l3.975 9.6a4.165 4.165 0 0 0 4.744 2.518c7.608-1.536 15.387-1.493 22.994 0 1.966.384 3.975-.682 4.744-2.517l3.975-9.601c.513-1.28 2.009-1.878 3.291-1.366l10.471 4.353c.599.256 1.111.725 1.368 1.365.256.598.256 1.28 0 1.92l-3.975 9.601c-.77 1.878-.128 4.011 1.539 5.12A57.877 57.877 0 0 1 169.057 47.3c1.11 1.664 3.29 2.347 5.128 1.58l9.617-3.97a2.504 2.504 0 0 1 1.923 0c.598.257 1.111.726 1.368 1.366l4.316 10.455c.257.597.257 1.28 0 1.92a2.521 2.521 0 0 1-1.367 1.365l-9.617 3.969c-1.88.768-2.906 2.73-2.521 4.736 1.538 7.595 1.496 15.361 0 22.957-.385 1.963.683 3.968 2.521 4.736l9.617 3.969c1.282.512 1.88 2.005 1.367 3.285l-4.36 10.454c-.512 1.28-2.008 1.878-3.29 1.366l-9.616-3.968c-1.881-.769-4.018-.128-5.13 1.536a57.877 57.877 0 0 1-16.283 16.257c-1.667 1.11-2.35 3.286-1.581 5.12l3.974 9.601c.257.598.257 1.28 0 1.92a2.521 2.521 0 0 1-1.367 1.366l-10.471 4.31c-.599.256-1.283.256-1.924 0-.598-.256-1.111-.726-1.367-1.366l-3.975-9.6c-.898-2.177-3.377-3.2-5.514-2.305-2.18.896-3.205 3.371-2.308 5.505l3.975 9.6a10.931 10.931 0 0 0 5.941 5.932c1.368.555 2.778.853 4.189.853 1.41 0 2.863-.298 4.188-.853l10.471-4.31a10.931 10.931 0 0 0 5.941-5.931 10.908 10.908 0 0 0 0-8.363l-2.693-6.486c5.257-3.883 9.83-8.492 13.763-13.74l6.496 2.688c5.599 2.304 12.01-.341 14.318-5.931l4.36-10.455c2.307-5.59-.343-11.99-5.942-14.294l-6.496-2.688c.94-6.444.94-12.972 0-19.416l6.496-2.688a10.931 10.931 0 0 0 5.941-5.931 10.908 10.908 0 0 0 0-8.363l-4.316-10.455a10.931 10.931 0 0 0-5.941-5.93 10.958 10.958 0 0 0-8.377 0l-6.497 2.687a66.416 66.416 0 0 0-13.72-13.74l2.693-6.486a10.908 10.908 0 0 0 0-8.363 10.931 10.931 0 0 0-5.94-5.931L146.575.917c-5.598-2.304-12.01.342-14.317 5.932l-2.693 6.486a67.492 67.492 0 0 0-19.446 0l-2.693-6.486a10.931 10.931 0 0 0-5.94-5.932 10.958 10.958 0 0 0-8.378 0z"/>
        <path fill="#32346E" d="M154.226 79.9c-.128-18.86-15.557-34.093-34.406-34.093h-.256c-9.189.085-17.822 3.712-24.276 10.24-6.454 6.53-9.958 15.192-9.916 24.366 0 2.304 1.924 4.181 4.232 4.181h.042c2.351 0 4.232-1.92 4.189-4.267-.043-6.912 2.607-13.44 7.48-18.39 4.872-4.95 11.368-7.681 18.292-7.724h.17c14.233 0 25.858 11.521 25.944 25.73.085 14.295-11.455 25.987-25.772 26.115a4.184 4.184 0 0 0-4.189 4.267c0 2.304 1.924 4.181 4.231 4.181h.043c19.02-.128 34.32-15.66 34.192-34.605z"/>
        <path fill="#00ADED" d="M57.827 198.893h8.248c5.044 0 9.147-4.096 9.147-9.131v-4.225a48.51 48.51 0 0 0 11.71-4.864l2.992 2.987a9.13 9.13 0 0 0 6.454 2.688c2.436 0 4.744-.939 6.453-2.688l5.813-5.803a9.101 9.101 0 0 0 2.693-6.444c0-2.432-.94-4.736-2.693-6.443l-2.992-2.987a48.346 48.346 0 0 0 4.873-11.691h4.23c5.044 0 9.147-4.097 9.147-9.132v-8.235c0-5.035-4.103-9.132-9.146-9.132h-4.231a48.345 48.345 0 0 0-4.873-11.692l2.992-2.987a9.101 9.101 0 0 0 2.693-6.443c0-2.432-.94-4.736-2.693-6.443l-5.813-5.803a9.13 9.13 0 0 0-6.453-2.688c-2.436 0-4.744.938-6.454 2.688l-2.992 2.987a48.51 48.51 0 0 0-11.71-4.865v-4.224c0-5.035-4.103-9.132-9.147-9.132h-8.248c-5.044 0-9.147 4.097-9.147 9.132v4.224a48.51 48.51 0 0 0-11.71 4.865l-2.992-2.987a9.13 9.13 0 0 0-6.454-2.688c-2.436 0-4.744.938-6.453 2.688l-5.813 5.803c-3.547 3.542-3.547 9.345 0 12.886l2.992 2.987a48.345 48.345 0 0 0-4.873 11.692h-4.23c-5.044 0-9.147 4.097-9.147 9.132v8.235c0 5.035 4.103 9.132 9.146 9.132h4.231a48.346 48.346 0 0 0 4.873 11.691l-2.992 2.987c-3.547 3.542-3.547 9.345 0 12.887l5.813 5.803a9.13 9.13 0 0 0 6.453 2.688c2.436 0 4.744-.939 6.454-2.688l2.992-2.987a48.51 48.51 0 0 0 11.71 4.864v4.225c.043 5.035 4.146 9.131 9.147 9.131zM38.722 171.84c-.726-.47-1.539-.725-2.35-.725-1.112 0-2.18.426-2.992 1.237l-5.343 5.334a.656.656 0 0 1-.47.213.656.656 0 0 1-.47-.213l-5.813-5.803a.669.669 0 0 1 0-.939l5.343-5.334c1.41-1.408 1.667-3.67.513-5.334a41.115 41.115 0 0 1-6.24-15.02 4.251 4.251 0 0 0-4.146-3.413H9.189a.675.675 0 0 1-.684-.683v-8.235c0-.384.3-.683.684-.683h7.565a4.21 4.21 0 0 0 4.146-3.414 41.115 41.115 0 0 1 6.24-15.02c1.11-1.664.897-3.925-.513-5.334l-5.343-5.333a.669.669 0 0 1 0-.94l5.813-5.802a.656.656 0 0 1 .47-.214c.128 0 .3.043.47.214l5.343 5.419c1.41 1.408 3.675 1.664 5.342.512a41.255 41.255 0 0 1 15.044-6.23c1.966-.384 3.42-2.134 3.42-4.14v-7.552c0-.384.299-.683.683-.683h8.25c.384 0 .683.3.683.683v7.553a4.206 4.206 0 0 0 3.42 4.139 41.255 41.255 0 0 1 15.044 6.23c1.666 1.11 3.932.896 5.342-.512l5.342-5.334a.656.656 0 0 1 .47-.213c.129 0 .3.042.47.213l5.813 5.803c.171.17.214.342.214.47a.654.654 0 0 1-.214.469l-5.342 5.334c-1.41 1.408-1.667 3.67-.513 5.334a41.115 41.115 0 0 1 6.24 15.02 4.251 4.251 0 0 0 4.146 3.413h7.565c.384 0 .683.299.683.683v8.235c0 .384-.299.683-.683.683h-7.565a4.21 4.21 0 0 0-4.146 3.414 41.115 41.115 0 0 1-6.24 15.02c-1.111 1.664-.898 3.925.513 5.334l5.342 5.333c.171.171.214.342.214.47a.654.654 0 0 1-.214.47l-5.812 5.802a.656.656 0 0 1-.47.214.656.656 0 0 1-.47-.214l-5.343-5.333c-1.41-1.409-3.676-1.665-5.342-.512a41.255 41.255 0 0 1-15.045 6.23c-1.966.383-3.419 2.133-3.419 4.138v7.553c0 .384-.3.683-.684.683H57.87a.675.675 0 0 1-.683-.683v-7.553a4.206 4.206 0 0 0-3.42-4.139c-5.385-1.152-10.47-3.243-15.044-6.315z"/>
        <path fill="#00ADED" d="M87.06 137.106c0-13.825-11.283-25.09-25.13-25.09-13.848 0-25.088 11.265-25.088 25.09 0 13.826 11.283 25.09 25.13 25.09 13.848 0 25.089-11.264 25.089-25.09zm-41.756 0c0-9.174 7.48-16.641 16.668-16.641 9.19 0 16.669 7.467 16.669 16.641 0 9.175-7.48 16.642-16.669 16.642s-16.668-7.51-16.668-16.642z"/>
    </g>
</svg>
