<svg xmlns="http://www.w3.org/2000/svg" width="10" height="10" viewBox="0 0 10 10">
    <g fill="#EB605C" fill-rule="nonzero">
        <path d="M4.83 2.13c-.295 0-.533.266-.533.594v2.45c0 .328.238.593.533.593.294 0 .532-.265.532-.593v-2.45c0-.328-.238-.593-.532-.593z"/>
        <path d="M4.83 0C2.185 0 0 2.208 0 4.865 0 7.508 2.167 9.66 4.83 9.66a4.8 4.8 0 0 0 4.794-4.794C9.624 2.222 7.488 0 4.83 0zm0 8.594c-2.076 0-3.765-1.673-3.765-3.729 0-2.06 1.724-3.8 3.765-3.8 2.056 0 3.728 1.705 3.728 3.8A3.733 3.733 0 0 1 4.83 8.594z"/>
        <path d="M4.824 6.463a.539.539 0 1 0 .001 1.077.539.539 0 0 0 0-1.077z"/>
    </g>
</svg>
