<svg xmlns="http://www.w3.org/2000/svg" width="154" height="148" viewBox="0 0 154 148">
    <g fill="#32346E" fill-rule="nonzero">
        <path stroke="#32346E" d="M9.763 120.203a2.686 2.686 0 0 1-.766-1.906c.021-1.344.391-13.309 6.703-19.625 2.912-2.914 9.012-6.07 17.983-10.561 9.574-4.785 14.883-7.639 17.33-9.953l5.395-5.102-4.688-5.76c-7.383-9.072-11.619-19.09-11.619-27.482 0-6.473 0-13.809 3.063-19.877C46.83 12.68 54.17 9 64.986 9c10.814 0 18.158 3.68 21.82 10.936 3.063 6.07 3.063 13.406 3.063 19.879 0 8.391-4.234 18.408-11.62 27.482l-4.689 5.762 5.398 5.104c1.223 1.154 9.833 7.605 12.667 9.207l2.322-8.207c-6.196-4.416-9.36-6.688-9.495-6.815 8.49-10.434 13.413-22.217 13.413-32.533 0-7 0-15.713-3.918-23.482C90.417 9.338 82.527 1 64.987 1 47.444 1 39.554 9.338 36.024 16.332c-3.922 7.77-3.922 16.48-3.922 23.482 0 10.318 4.924 22.1 13.414 32.533-2.027 1.918-10.387 6.098-15.41 8.607-9.963 4.984-16.284 8.279-20.063 12.061-8.369 8.371-9.002 22.422-9.043 25.156a10.668 10.668 0 0 0 3.063 7.648 10.68 10.68 0 0 0 7.598 3.18h86.295l-5-8H11.662a2.665 2.665 0 0 1-1.899-.796z"/>
        <path d="M88.34 124.592c-11.787-11.787-11.787-30.965 0-42.752 11.786-11.787 30.964-11.787 42.75 0 10 10 11.514 24.87 4.548 36.484 0 0-.5.84.175 1.515l15.423 15.423c3.07 3.07 3.8 7.362 1.078 10.085l-.468.468c-2.723 2.723-7.015 1.992-10.085-1.078l-15.39-15.39c-.709-.709-1.548-.208-1.548-.208-11.613 6.966-26.485 5.452-36.484-4.547zm37.17-5.582c8.708-8.709 8.708-22.88 0-31.588-8.71-8.71-22.88-8.71-31.59 0-8.709 8.708-8.709 22.88 0 31.588 8.71 8.709 22.88 8.709 31.59 0z"/>
        <path d="M123.58 101.422a3.12 3.12 0 0 0 2.872-4.337c-4.22-9.974-15.769-14.655-25.743-10.434a3.12 3.12 0 0 0 2.432 5.747c6.805-2.88 14.685.314 17.564 7.119a3.121 3.121 0 0 0 2.875 1.905z"/>
    </g>
</svg>
