<svg xmlns="http://www.w3.org/2000/svg" width="160" height="200" viewBox="0 0 160 200">
    <g fill="#32346E" fill-rule="nonzero" opacity=".05">
        <path d="M78.053 76.838c-2.6-2.438-6.826-2.45-9.44-.013L46.667 97.412l-8.614-8.087c-2.6-2.438-6.826-2.438-9.426 0-2.6 2.438-2.6 6.4 0 8.837l13.333 12.5c1.293 1.225 3 1.838 4.707 1.838 1.706 0 3.413-.612 4.72-1.825l26.666-25c2.6-2.438 2.6-6.4 0-8.837zM78.053 126.838c-2.6-2.438-6.826-2.45-9.44-.013l-21.946 20.587-8.614-8.075c-2.6-2.437-6.826-2.437-9.426 0-2.6 2.438-2.6 6.4 0 8.838l13.333 12.5c1.293 1.212 3 1.825 4.707 1.825 1.706 0 3.413-.613 4.72-1.825l26.666-25c2.6-2.438 2.6-6.4 0-8.838zM126.667 87.5H100c-3.68 0-6.667 2.8-6.667 6.25S96.32 100 100 100h26.667c3.68 0 6.666-2.8 6.666-6.25s-2.986-6.25-6.666-6.25zM126.667 137.5H100c-3.68 0-6.667 2.8-6.667 6.25S96.32 150 100 150h26.667c3.68 0 6.666-2.8 6.666-6.25s-2.986-6.25-6.666-6.25z"/>
        <path d="M146.667 25H120v-6.25c0-3.45-2.987-6.25-6.667-6.25H98.867C96.107 5.225 88.693 0 80 0c-8.693 0-16.107 5.225-18.867 12.5H46.667c-3.68 0-6.667 2.8-6.667 6.25V25H13.333C5.987 25 0 30.613 0 37.5v150c0 6.887 5.987 12.5 13.333 12.5h133.334c7.346 0 13.333-5.613 13.333-12.5v-150c0-6.887-5.987-12.5-13.333-12.5zm-93.334 0h13.334c3.68 0 6.666-2.8 6.666-6.25S76.32 12.5 80 12.5c3.68 0 6.667 2.8 6.667 6.25S89.653 25 93.333 25h13.334v12.5H53.333V25zm93.334 162.5H13.333v-150H40v6.25C40 47.2 42.987 50 46.667 50h66.666c3.68 0 6.667-2.8 6.667-6.25V37.5h26.667v150z"/>
    </g>
</svg>
