<svg xmlns="http://www.w3.org/2000/svg" width="135" height="100" viewBox="0 0 135 100">
    <path fill="#32346E" fill-rule="nonzero" d="M134.86 70.554c-2.228-12.867-10.558-23.199-21.543-27.99 4.875-4.19 7.988-10.536 7.988-17.624 0-12.59-9.817-22.833-21.885-22.833-12.068 0-21.886 10.242-21.886 22.833 0 7.092 3.117 13.44 7.997 17.63a35.423 35.423 0 0 0-5.27 2.854c-4.247 2.792-7.873 6.468-10.667 10.773a44.582 44.582 0 0 0-9.126-4.783c6.929-5.134 11.459-13.576 11.459-23.102C71.927 12.7 59.762 0 44.809 0S17.69 12.7 17.69 28.312c0 9.526 4.53 17.968 11.458 23.102C14.404 57.068 3.095 70.515.162 87.445c-.542 3.13.29 6.323 2.281 8.76C4.416 98.617 7.293 100 10.34 100h68.94c3.045 0 5.923-1.383 7.895-3.795a10.89 10.89 0 0 0 2.282-8.76 49.431 49.431 0 0 0-1.459-6.096h38.105c2.622 0 5.1-1.19 6.798-3.266a9.36 9.36 0 0 0 1.96-7.529z" opacity=".048"/>
</svg>
