<svg xmlns="http://www.w3.org/2000/svg" width="27" height="20" viewBox="0 0 27 20">
    <path fill="#32346E" fill-rule="nonzero" d="M26.972 14.11c-.446-2.573-2.112-4.639-4.309-5.597a4.637 4.637 0 0 0 1.598-3.525c0-2.518-1.963-4.567-4.377-4.567-2.414 0-4.377 2.049-4.377 4.567 0 1.418.623 2.688 1.6 3.526-.365.16-.718.35-1.055.57a7.384 7.384 0 0 0-2.133 2.155 8.916 8.916 0 0 0-1.825-.956c1.385-1.027 2.291-2.715 2.291-4.62C14.385 2.54 11.952 0 8.962 0S3.538 2.54 3.538 5.662c0 1.906.906 3.594 2.292 4.62C2.88 11.415.619 14.104.032 17.49a2.179 2.179 0 0 0 .457 1.752c.394.482.97.759 1.579.759h13.788c.609 0 1.184-.277 1.579-.76a2.178 2.178 0 0 0 .456-1.751 9.886 9.886 0 0 0-.292-1.22h7.621c.525 0 1.02-.237 1.36-.652.342-.42.485-.968.392-1.506zM17.09 4.989c0-1.624 1.254-2.945 2.795-2.945s2.795 1.321 2.795 2.945c0 1.624-1.254 2.945-2.795 2.945s-2.795-1.321-2.795-2.945zM5.12 5.662c0-2.228 1.724-4.04 3.842-4.04 2.118 0 3.842 1.812 3.842 4.04 0 2.228-1.724 4.041-3.842 4.041-2.118 0-3.842-1.813-3.842-4.04zM16.222 18.2a.472.472 0 0 1-.366.18H2.068a.472.472 0 0 1-.367-.18.525.525 0 0 1-.11-.427c.646-3.735 3.747-6.447 7.37-6.447 3.625 0 6.725 2.712 7.372 6.447a.524.524 0 0 1-.11.427zm9.145-3.624a.19.19 0 0 1-.146.073h-8.286a9.418 9.418 0 0 0-1.775-2.393c1.03-1.68 2.792-2.7 4.724-2.7 2.719 0 5.045 2.035 5.53 4.84a.222.222 0 0 1-.047.18z"/>
</svg>
