<svg xmlns="http://www.w3.org/2000/svg" width="59" height="15" viewBox="0 0 59 15">
    <g fill="none" fill-rule="evenodd">
        <path fill="#000" fill-rule="nonzero" d="M16.072 12.282V4.648h2.664c.929 0 1.592.155 1.99.467.398.31.596.831.596 1.56 0 .825-.266 1.467-.797 1.926-.532.46-1.276.689-2.233.689h-.661v2.992h-1.56zm1.559-4.04h.31c.543 0 .973-.125 1.288-.378.315-.253.472-.596.472-1.03 0-.76-.483-1.14-1.45-1.14h-.62v2.549zm6.934 4.04V4.648h1.59v6.55H29.6v1.084h-5.034zm7.322 0l2.973-7.634h1.59l2.974 7.634h-1.631l-.795-2.038h-3.16l-.795 2.038h-1.156zm2.344-3.054h2.375l-1.188-3.043-1.187 3.043zm8.287 3.054V4.648h1.399l3.541 5.215V4.648h1.276v7.634h-1.425l-3.516-5.215v5.215h-1.275zm12.635 1.34l-.01-1.134a3.47 3.47 0 0 0 1.275.242c.365 0 .616-.101.754-.304.137-.203.206-.567.206-1.093V4.648h1.596v6.514c0 .94-.191 1.615-.574 2.027-.382.413-1.006.62-1.874.62-.433 0-.891-.063-1.373-.186z"/>
        <path fill="#00ADED" d="M.423 7.183h4.864c.234 0 .423.19.423.423v1.479c0 .233-.19.422-.423.422H.423A.423.423 0 0 1 0 9.085v-1.48c0-.233.19-.422.423-.422z"/>
        <path fill="#EB605C" d="M3.383 10.14h5.922c.233 0 .423.19.423.423v1.268c0 .233-.19.423-.423.423H3.383a.423.423 0 0 1-.422-.423v-1.268c0-.233.189-.422.422-.422z"/>
        <path fill="#17CFA6" d="M.423 12.887h8.882c.233 0 .423.19.423.423v1.267c0 .234-.19.423-.423.423H.423A.423.423 0 0 1 0 14.577V13.31c0-.234.19-.423.423-.423z"/>
        <g fill-rule="nonzero">
            <path fill="#32346E" d="M2.75 3.486A3.491 3.491 0 0 1 6.237 0a3.491 3.491 0 0 1 3.49 3.486c0 .626-.167 1.236-.484 1.772l.47 1.7-1.702-.47a3.491 3.491 0 0 1-5.263-3.003z"/>
            <path fill="#FFF" d="M7.519 4.279c-.208.241-.52.369-.9.369-.152 0-.275-.112-.275-.25 0-.137.123-.25.274-.25.216 0 .365-.056.47-.177.101-.118.153-.287.175-.468h-.684c-.113 0-.205-.084-.205-.187V2.51c0-.103.092-.187.205-.187h.884c.126 0 .241.1.266.193.003.012.076.288.092.632.023.49-.079.87-.302 1.13zM5.827 4.279c-.208.241-.52.369-.9.369-.152 0-.275-.112-.275-.25 0-.137.123-.25.274-.25.216 0 .365-.056.47-.177.102-.118.153-.287.175-.468h-.684c-.113 0-.205-.084-.205-.187V2.51c0-.103.092-.187.205-.187h.884c.126 0 .241.1.266.193.003.012.077.288.093.632.022.49-.08.87-.303 1.13z"/>
        </g>
    </g>
</svg>
