<svg xmlns="http://www.w3.org/2000/svg" width="20" height="20" viewBox="0 0 20 20">
    <g fill="none" fill-rule="evenodd">
        <circle cx="10" cy="10" r="10" fill="#000"/>
        <path fill="#FFF" fill-rule="nonzero" stroke="#FFF" stroke-width=".5" d="M12.45 12.633a4.605 4.605 0 0 0 2.217-3.966A4.68 4.68 0 0 0 10 4a4.68 4.68 0 0 0-4.667 4.667c0 1.691.875 3.15 2.217 3.966C5.217 13.508 3.467 15.55 3 18h1.167A5.949 5.949 0 0 1 10 13.333 5.949 5.949 0 0 1 15.833 18H17c-.467-2.508-2.217-4.55-4.55-5.367zM6.5 8.667a3.51 3.51 0 0 1 3.5-3.5 3.51 3.51 0 0 1 3.5 3.5 3.51 3.51 0 0 1-3.5 3.5 3.51 3.51 0 0 1-3.5-3.5z"/>
    </g>
</svg>
