<svg xmlns="http://www.w3.org/2000/svg" width="46" height="70" viewBox="0 0 46 70">
    <g fill="none" fill-rule="evenodd">
        <path fill="#00ADED" d="M1.977 33.521h22.881c1.092 0 1.977.885 1.977 1.978v6.89a1.977 1.977 0 0 1-1.977 1.977H1.978A1.977 1.977 0 0 1 0 42.39v-6.89c0-1.093.885-1.978 1.977-1.978z"/>
        <path fill="#EB605C" d="M15.892 47.324h27.85c1.092 0 1.978.885 1.978 1.977v5.905a1.977 1.977 0 0 1-1.978 1.977h-27.85a1.977 1.977 0 0 1-1.977-1.977V49.3c0-1.092.885-1.977 1.977-1.977z"/>
        <path fill="#17CFA6" d="M1.977 60.14h41.765c1.092 0 1.978.886 1.978 1.978v5.905A1.977 1.977 0 0 1 43.742 70H1.977A1.977 1.977 0 0 1 0 68.023v-5.905c0-1.092.885-1.977 1.977-1.977z"/>
        <g fill-rule="nonzero">
            <path fill="#32346E" d="M12.92 16.268C12.92 7.298 20.278 0 29.32 0s16.4 7.297 16.4 16.268c0 2.923-.785 5.77-2.274 8.268l2.213 7.94-8.003-2.197a16.45 16.45 0 0 1-8.336 2.256c-9.043 0-16.4-7.297-16.4-16.267z"/>
            <path fill="#FFF" d="M35.339 19.968c-.979 1.127-2.443 1.722-4.234 1.722-.711 0-1.288-.521-1.288-1.164 0-.643.577-1.164 1.288-1.164 1.014 0 1.715-.265 2.208-.832.477-.55.72-1.34.821-2.183h-3.212c-.534 0-.966-.391-.966-.874v-3.755c0-.482.432-.873.966-.873h4.153c.594 0 1.135.47 1.251.902.015.054.36 1.344.434 2.95.107 2.289-.372 4.062-1.421 5.271zM27.387 19.968c-.978 1.127-2.442 1.722-4.233 1.722-.712 0-1.288-.521-1.288-1.164 0-.643.576-1.164 1.288-1.164 1.013 0 1.715-.265 2.207-.832.478-.55.72-1.34.822-2.183H22.97c-.533 0-.965-.391-.965-.874v-3.755c0-.482.432-.873.965-.873h4.154c.594 0 1.134.47 1.25.902.016.054.36 1.344.435 2.95.106 2.289-.372 4.062-1.422 5.271z"/>
        </g>
    </g>
</svg>
