<svg xmlns="http://www.w3.org/2000/svg" width="15" height="15" viewBox="0 0 15 15">
    <path fill="#32346E" fill-rule="nonzero" d="M6.48 1.006C6.48.45 6.97 0 7.57 0c.599 0 1.09.45 1.09 1.006v4.05c0 .555-.491 1.005-1.09 1.005-.6 0-1.09-.45-1.09-1.006V1.006zm8.51 7.413c-.204 3.579-3.354 6.45-7.216 6.577C3.519 15.134 0 11.964 0 8.049c0-2.124 1.07-4.027 2.674-5.303.634-.505 1.614-.09 1.614.686 0 .267-.129.52-.349.693-1.19.94-1.968 2.35-1.968 3.924 0 2.824 2.495 5.122 5.54 5.122 3.046 0 5.521-2.298 5.521-5.122 0-1.525-.688-2.896-1.862-3.835a.89.89 0 0 1-.346-.694c0-.782.996-1.201 1.628-.683 1.649 1.35 2.663 3.361 2.537 5.582z"/>
</svg>
