<svg xmlns="http://www.w3.org/2000/svg" width="12" height="11" viewBox="0 0 12 11">
    <g fill="#32346E" fill-rule="nonzero">
        <path stroke="#32346E" stroke-width=".4" d="M11.014 9.952H4.177a.517.517 0 0 1-.51-.523c0-.29.228-.524.51-.524h6.837c.281 0 .51.234.51.524 0 .289-.228.523-.51.523zM11.014 5.762H4.177a.517.517 0 0 1-.51-.524c0-.29.228-.524.51-.524h6.837c.281 0 .51.235.51.524 0 .29-.228.524-.51.524zM11.014 1.571H4.177a.517.517 0 0 1-.51-.523c0-.29.228-.524.51-.524h6.837c.281 0 .51.234.51.524 0 .289-.228.523-.51.523z"/>
        <ellipse cx="1.158" cy="1.176" rx="1.158" ry="1.176"/>
        <ellipse cx="1.158" cy="5.366" rx="1.158" ry="1.176"/>
        <ellipse cx="1.158" cy="9.557" rx="1.158" ry="1.176"/>
    </g>
</svg>
