<svg xmlns="http://www.w3.org/2000/svg" width="20" height="20" viewBox="0 0 20 20">
    <g fill="none" fill-rule="nonzero">
        <path fill="#32346E" d="M20 10c0-5.514-4.486-10-10-10S0 4.486 0 10c0 1.797.478 3.547 1.387 5.083l-1.35 4.88 4.88-1.35A9.969 9.969 0 0 0 10 20c5.514 0 10-4.486 10-10z"/>
        <path fill="#FFF" d="M8.628 12.323c-.55.7-1.373 1.07-2.38 1.07a.724.724 0 1 1 0-1.448c.57 0 .964-.164 1.241-.516.269-.343.405-.834.462-1.358H6.145a.543.543 0 0 1-.543-.543V7.193c0-.3.243-.543.543-.543H8.48c.334 0 .638.292.704.56.008.034.201.836.243 1.835.06 1.423-.209 2.526-.799 3.278zM13.636 12.323c-.55.7-1.373 1.07-2.38 1.07a.724.724 0 1 1 0-1.448c.57 0 .964-.164 1.241-.516.269-.343.405-.834.462-1.358h-1.806a.543.543 0 0 1-.543-.543V7.193c0-.3.243-.543.543-.543h2.335c.334 0 .638.292.704.56.008.034.201.836.243 1.835.06 1.423-.209 2.526-.799 3.278z"/>
    </g>
</svg>
