<svg xmlns="http://www.w3.org/2000/svg" width="110" height="110" viewBox="0 0 110 110">
    <g fill="none" fill-rule="nonzero" opacity=".05">
        <path stroke="#32346E" stroke-width="7.5" d="M106 54c0-27.57-22.43-50-50-50S6 26.43 6 54a49.844 49.844 0 0 0 6.933 25.415l-6.75 24.4 24.402-6.748A49.844 49.844 0 0 0 56 104c27.57 0 50-22.43 50-50z"/>
        <path fill="#32346E" d="M49.142 65.613c-2.751 3.503-6.866 5.355-11.9 5.355a3.62 3.62 0 1 1 0-7.24c2.848 0 4.82-.822 6.205-2.585 1.342-1.71 2.025-4.168 2.31-6.79h-9.031a2.715 2.715 0 0 1-2.715-2.715V39.963c0-1.5 1.216-2.715 2.715-2.715H48.4c1.67 0 3.19 1.463 3.517 2.804.04.168 1.01 4.178 1.219 9.173.3 7.116-1.045 12.63-3.995 16.388zM74.182 65.613c-2.75 3.503-6.866 5.355-11.9 5.355a3.62 3.62 0 1 1 0-7.24c2.849 0 4.82-.822 6.205-2.585 1.342-1.71 2.025-4.168 2.31-6.79h-9.03a2.715 2.715 0 0 1-2.716-2.715V39.963c0-1.5 1.215-2.715 2.715-2.715h11.675c1.67 0 3.19 1.463 3.517 2.804.041.168 1.009 4.178 1.22 9.173.298 7.116-1.046 12.63-3.996 16.388z"/>
    </g>
</svg>
