<svg xmlns="http://www.w3.org/2000/svg" width="22" height="22" viewBox="0 0 22 22">
    <g fill="none" fill-rule="nonzero">
        <path stroke="#32346E" stroke-width="1.5" d="M21 11c0-5.514-4.486-10-10-10S1 5.486 1 11c0 1.797.478 3.547 1.387 5.083l-1.35 4.88 4.88-1.35A9.969 9.969 0 0 0 11 21c5.514 0 10-4.486 10-10z"/>
        <path fill="#32346E" d="M9.628 13.323c-.55.7-1.373 1.07-2.38 1.07a.724.724 0 1 1 0-1.448c.57 0 .964-.164 1.241-.516.269-.343.405-.834.462-1.358H7.145a.543.543 0 0 1-.543-.543V8.193c0-.3.243-.543.543-.543H9.48c.334 0 .638.292.704.56.008.034.201.836.243 1.835.06 1.423-.209 2.526-.799 3.278zM14.636 13.323c-.55.7-1.373 1.07-2.38 1.07a.724.724 0 1 1 0-1.448c.57 0 .964-.164 1.241-.516.269-.343.405-.834.462-1.358h-1.806a.543.543 0 0 1-.543-.543V8.193c0-.3.243-.543.543-.543h2.335c.334 0 .638.292.704.56.008.034.201.836.243 1.835.06 1.423-.209 2.526-.799 3.278z"/>
    </g>
</svg>
