<svg xmlns="http://www.w3.org/2000/svg" width="200" height="200" viewBox="0 0 200 200">
    <g fill="#32346E" fill-rule="nonzero" opacity=".05">
        <path d="M182.422 0H17.578C7.886 0 0 7.886 0 17.578v141.406c0 9.693 7.886 17.578 17.578 17.578h52.734v11.72H52.734a5.86 5.86 0 0 0 0 11.718h94.141a5.86 5.86 0 0 0 0-11.719h-17.578v-11.719h53.125c9.692 0 17.578-7.885 17.578-17.578V17.578C200 7.886 192.114 0 182.422 0zm-64.844 188.281H82.031v-11.719h35.547v11.72zm70.703-29.297c0 3.231-2.628 5.86-5.86 5.86H17.579a5.866 5.866 0 0 1-5.86-5.86v-5.859h176.563v5.86zm0-17.578H11.72V17.578c0-3.23 2.628-5.86 5.86-5.86h164.843c3.23 0 5.86 2.63 5.86 5.86v123.828z"/>
        <path d="M100 46.875a5.86 5.86 0 0 0-5.86 5.86v24.218a5.86 5.86 0 0 0 11.72 0V52.734a5.86 5.86 0 0 0-5.86-5.859z"/>
        <path d="M100 23.438c-29.09 0-53.125 24.283-53.125 53.515 0 29.078 23.832 52.734 53.125 52.734 29.078 0 52.734-23.656 52.734-52.734 0-29.068-23.495-53.516-52.734-53.516zm0 94.53c-22.832 0-41.406-18.399-41.406-41.015 0-22.656 18.961-41.797 41.406-41.797 22.616 0 41.016 18.75 41.016 41.797 0 22.616-18.4 41.016-41.016 41.016z"/>
        <path d="M99.941 94.531a5.925 5.925 0 0 0-5.918 5.918 5.925 5.925 0 0 0 5.918 5.918 5.925 5.925 0 0 0 5.918-5.918 5.925 5.925 0 0 0-5.918-5.918z"/>
    </g>
</svg>
