<svg xmlns="http://www.w3.org/2000/svg" width="58" height="56" viewBox="0 0 58 56">
    <g fill="none" fill-rule="evenodd">
        <g stroke="#979797" stroke-width=".5">
            <path d="M1.25.25h55.5v55.5H1.25zM1 0l56 56M57 0L1 56"/>
        </g>
        <path fill="#FFF" d="M24.419 23.418h10.075v8.188H24.419z"/>
        <path fill="#D8D8D8" fill-rule="nonzero" d="M29.489 26.294c1.346 0 2.437 1.1 2.437 2.457a2.447 2.447 0 0 1-2.437 2.456 2.447 2.447 0 0 1-2.438-2.456 2.447 2.447 0 0 1 2.438-2.457zm6.5-2.456c.893 0 1.625.737 1.625 1.638v7.368c0 .901-.732 1.638-1.625 1.638h-13a1.636 1.636 0 0 1-1.625-1.638v-7.368c0-.901.73-1.638 1.625-1.638h1.95c.268 0 .556-.21.641-.466l.504-1.524a.724.724 0 0 1 .642-.466h5.525c.268 0 .557.21.642.466l.504 1.524a.724.724 0 0 0 .642.466h1.95zm-6.5 9.006c2.243 0 4.062-1.832 4.062-4.093s-1.82-4.094-4.062-4.094c-2.244 0-4.063 1.833-4.063 4.094 0 2.26 1.819 4.093 4.063 4.093zm5.93-6.223a.57.57 0 0 0 .57-.573.571.571 0 0 0-.57-.574.571.571 0 0 0-.568.574c0 .316.255.573.569.573z"/>
    </g>
</svg>
