<svg xmlns="http://www.w3.org/2000/svg" xmlns:xlink="http://www.w3.org/1999/xlink" width="90" height="90" viewBox="0 0 90 90">
    <defs>
        <path id="a" d="M71.767 109.886h6.466a45.651 45.651 0 0 1-6.466 0zM42.764 96.398C34.866 88.291 30 77.213 30 65c0-24.853 20.147-45 45-45s45 20.147 45 45c0 12.247-4.893 23.352-12.83 31.466-4.848-6.89-10.387-8.42-10.387-8.42h-4.368a8.737 8.737 0 0 1-8.736-8.735v-2.807c1.932-2.297 3.319-5.014 4.18-7.885.09-.484.555-.723.866-1.055 1.672-1.673 2.001-4.494.747-6.503-.171-.305-.479-.57-.461-.948 0-2.561.013-5.127-.004-7.686-.068-3.09-.951-6.305-3.118-8.593-1.749-1.849-4.15-2.95-6.629-3.42-3.13-.598-6.406-.568-9.508.221-2.687.678-5.212 2.252-6.773 4.585-1.383 2.029-1.988 4.492-2.09 6.92-.039 2.605-.01 5.218-.017 7.83.06.523-.384.877-.585 1.31-1.181 2.144-.661 5.064 1.237 6.623.482.332.572.938.747 1.46.828 2.581 2.2 4.968 3.937 7.047v2.9a8.736 8.736 0 0 1-8.736 8.737h-4.368s-5.503 1.518-10.34 8.351z"/>
    </defs>
    <use fill="#E7E8F2" fill-rule="evenodd" transform="translate(-30 -20)" xlink:href="#a"/>
</svg>
