<svg xmlns="http://www.w3.org/2000/svg" width="17" height="20" viewBox="0 0 17 20">
    <g fill="none" fill-rule="nonzero">
        <path fill="#000" d="M16.528 6.905H14V5.159C14 1.789 12.145 0 8.5 0S3 1.789 3 5.159v1.746H.472C.212 6.905 0 7.1 0 7.34v10.913C0 19.217.847 20 1.889 20H15.11C16.153 20 17 19.217 17 18.254V7.341c0-.241-.211-.436-.472-.436z"/>
        <path fill="#FFF" stroke="#000" d="M12.5 5.175v2.063h-8V5.175C4.5 2.899 6.294 2 8.5 2s4 .899 4 3.175z"/>
        <path fill="#000" d="M14.625 18.69H2.375c-.482 0-.875-.362-.875-.807V8.195h14v9.688c0 .445-.393.807-.875.807z"/>
        <path fill="#FFF" d="M7.384 13.547l-.298 2.476a.417.417 0 0 0 .118.34.49.49 0 0 0 .352.145h1.888a.49.49 0 0 0 .352-.145.416.416 0 0 0 .118-.34l-.298-2.476c.484-.325.773-.84.773-1.404 0-.963-.847-1.746-1.889-1.746s-1.889.783-1.889 1.746c0 .564.29 1.079.773 1.404z"/>
    </g>
</svg>
