<svg xmlns="http://www.w3.org/2000/svg" width="135" height="130" viewBox="0 0 135 130">
    <g fill="#32346E" fill-rule="nonzero" transform="translate(1 1)">
        <path stroke="#32346E" d="M8.763 119.203a2.686 2.686 0 0 1-.766-1.906c.021-1.344.391-13.309 6.703-19.625 2.912-2.914 9.012-6.07 17.983-10.561 9.574-4.785 14.883-7.639 17.33-9.953l5.395-5.102-4.688-5.76c-7.383-9.072-11.619-19.09-11.619-27.482 0-6.473 0-13.809 3.063-19.877C45.83 11.68 53.17 8 63.986 8c10.814 0 18.158 3.68 21.82 10.936 3.063 6.07 3.063 13.406 3.063 19.879 0 8.391-4.234 18.408-11.62 27.482l-4.689 5.762 5.398 5.104c1.223 1.154 3.164 2.447 5.998 4.049V72c-.202-.307-.37-.525-.504-.652 8.49-10.434 13.413-22.217 13.413-32.533 0-7 0-15.713-3.918-23.482C89.417 8.338 81.527 0 63.987 0 46.444 0 38.554 8.338 35.024 15.332c-3.922 7.77-3.922 16.48-3.922 23.482 0 10.318 4.924 22.1 13.414 32.533-2.027 1.918-10.387 6.098-15.41 8.607-9.963 4.984-16.284 8.279-20.063 12.061C.675 100.386.042 114.437.001 117.171a10.668 10.668 0 0 0 3.063 7.648 10.68 10.68 0 0 0 7.598 3.18h73.295v-8H10.662a2.665 2.665 0 0 1-1.899-.796z"/>
        <path d="M130.632 85.909c-1.871-4.186-6.087-6.898-10.75-6.909H106.22c-4.917 0-9.208 2.898-10.935 7.39-.23.597-.51 1.35-.803 2.227H65.86a4.372 4.372 0 0 0-3.137 1.327l-7.51 7.735a4.371 4.371 0 0 0 .019 6.11l7.65 7.783A4.372 4.372 0 0 0 66 112.88h14.208a4.371 4.371 0 1 0 0-8.744H67.833l-3.372-3.43 3.247-3.345h30.053a4.372 4.372 0 0 0 4.246-3.332c.354-1.445.797-2.833 1.44-4.502.422-1.101 1.485-1.784 2.784-1.784h13.642c1.236.003 2.3.667 2.777 1.734 1.173 2.626 2.575 6.69 2.585 11.144.01 4.488-1.39 8.645-2.566 11.343a2.985 2.985 0 0 1-2.745 1.79h-13.805c-1.21-.003-2.343-.78-2.819-1.936-.511-1.24-.954-2.655-1.355-4.327a4.372 4.372 0 0 0-8.503 2.035c.508 2.12 1.089 3.96 1.776 5.625 1.835 4.452 6.106 7.335 10.89 7.346H119.935a11.72 11.72 0 0 0 10.75-7.038c1.51-3.465 3.308-8.855 3.294-14.858-.014-5.987-1.827-11.294-3.346-14.692z"/>
        <circle cx="116.274" cy="100.639" r="4.372"/>
    </g>
</svg>
