<svg xmlns="http://www.w3.org/2000/svg" width="187" height="128" viewBox="0 0 187 128">
    <g fill="none" fill-rule="nonzero">
        <path fill="#32346E" d="M136.645 4.05a5.08 5.08 0 0 0-2.268-3.155 5.062 5.062 0 0 0-3.829-.623L3.904 30.216A5.068 5.068 0 0 0 .757 32.49a5.09 5.09 0 0 0-.622 3.837l20.628 87.624a5.074 5.074 0 0 0 4.93 3.914c.385 0 .776-.045 1.167-.137l126.643-29.943a5.07 5.07 0 0 0 3.147-2.272 5.09 5.09 0 0 0 .623-3.838L136.644 4.049zm.63 46.92L115.58 38.34l13.862-20.645 7.833 33.274zm-124.61-5.664l21.608 12.258L20.498 78.58l-7.833-33.273zm6.158-8.18l101.461-23.99-39.652 59.056-61.809-35.066zm10.643 79.547l-5.763-24.479 19.41-29.614 36.609 20.768a5.063 5.063 0 0 0 6.701-1.584l23.485-34.977 30.572 17.796 5.763 24.479-116.777 27.61z"/>
        <path fill="#EB605C" d="M181.932 3.546h-31.843a5.074 5.074 0 0 0-5.068 5.08c0 2.804 2.269 5.079 5.068 5.079h31.843c2.8 0 5.068-2.275 5.068-5.08a5.074 5.074 0 0 0-5.068-5.079z"/>
        <path fill="#00ADED" d="M176.58 29.416h-21.14a5.074 5.074 0 0 0-5.068 5.08c0 2.804 2.27 5.079 5.068 5.079h21.14c2.8 0 5.068-2.275 5.068-5.08a5.074 5.074 0 0 0-5.068-5.079z"/>
        <path fill="#595959" d="M171.507 55.286h-10.992a5.074 5.074 0 0 0-5.069 5.08c0 2.804 2.27 5.079 5.069 5.079h10.992c2.8 0 5.068-2.275 5.068-5.08s-2.269-5.079-5.068-5.079z"/>
    </g>
</svg>
