<svg xmlns="http://www.w3.org/2000/svg" width="22" height="21" viewBox="0 0 22 21">
    <g fill="#000" fill-rule="nonzero">
        <path d="M16.455 2.85V.947c0-.524-.409-.948-.91-.948-.501 0-.909.424-.909.948V2.85c0 .524.409.949.91.949.501 0 .909-.425.909-.949z"/>
        <path stroke="#000" stroke-width=".5" d="M2.818 5.697h16.364v1H2.818z"/>
        <path d="M6.682 3.798c.376 0 .682-.317.682-.714V.714C7.364.32 7.059 0 6.682 0h-.455c-.376 0-.682.317-.682.714v2.369c0 .395.305.715.682.715h.455z"/>
        <path stroke="#000" stroke-width=".5" d="M8.273 1.899h5.455v1H8.273zM9.182 17.09V9.494H8.45c-.13.516-.328.843-.593.981-.265.139-.732.237-1.402.296v.643h1.84v5.676h.887z"/>
        <path stroke="#000" stroke-width=".5" d="M1 18.988c0 .95 1 .95 1 .95h18.09s.91 0 .91-.95V1.898h-3.636v.95h2.727v16.14H1.909V2.848h2.727v-.95H1v17.09z"/>
        <path d="M15.057 10.531c-.207-.344-.098-.161 0 0z"/>
        <path stroke="#000" stroke-width=".5" d="M13.255 9.494c-.948 0-1.603.561-1.965 1.684-.194.602-.29 1.323-.29 2.163 0 1.085.16 1.949.483 2.592.386.771.975 1.157 1.767 1.157.877 0 1.51-.472 1.895-1.415.267-.658.4-1.489.4-2.494 0-1.06-.147-1.895-.441-2.505-.38-.788-.997-1.182-1.85-1.182zm1.003 6.03c-.252.41-.59.616-1.015.616-.528 0-.902-.337-1.12-1.01-.143-.44-.214-1.024-.214-1.75 0-.966.112-1.696.335-2.192.223-.497.576-.744 1.058-.744.525 0 .879.26 1.06.783.183.522.273 1.189.273 1.998.001 1.12-.125 1.887-.377 2.298z"/>
    </g>
</svg>
