<svg xmlns="http://www.w3.org/2000/svg" width="20" height="20" viewBox="0 0 20 20">
    <g fill="#000" fill-rule="nonzero">
        <path d="M18.242 0H1.758A1.76 1.76 0 0 0 0 1.758v14.14c0 .97.789 1.758 1.758 1.758H7.03v1.172H5.273a.586.586 0 0 0 0 1.172h9.415a.586.586 0 0 0 0-1.172H12.93v-1.172h5.312A1.76 1.76 0 0 0 20 15.898V1.758A1.76 1.76 0 0 0 18.242 0zm-6.484 18.828H8.203v-1.172h3.555v1.172zm7.07-2.93a.587.587 0 0 1-.586.586H1.758a.587.587 0 0 1-.586-.586v-.585h17.656v.585zm0-1.757H1.172V1.758c0-.323.263-.586.586-.586h16.484c.323 0 .586.263.586.586V14.14z"/>
        <path d="M10 4.688a.586.586 0 0 0-.586.585v2.422a.586.586 0 0 0 1.172 0V5.273A.586.586 0 0 0 10 4.688z"/>
        <path d="M10 2.344c-2.909 0-5.313 2.428-5.313 5.351 0 2.908 2.384 5.274 5.313 5.274a5.28 5.28 0 0 0 5.273-5.274c0-2.907-2.35-5.351-5.273-5.351zm0 9.453c-2.283 0-4.14-1.84-4.14-4.102 0-2.265 1.896-4.18 4.14-4.18 2.262 0 4.102 1.876 4.102 4.18A4.106 4.106 0 0 1 10 11.797z"/>
        <path d="M9.994 9.453a.592.592 0 1 0 .001 1.185.592.592 0 0 0 0-1.185z"/>
    </g>
</svg>
