<svg xmlns="http://www.w3.org/2000/svg" width="16" height="20" viewBox="0 0 16 20">
    <g fill="#000" fill-rule="nonzero">
        <path d="M7.805 7.684a.7.7 0 0 0-.944-.002l-2.194 2.06-.862-.81a.699.699 0 0 0-.942 0 .598.598 0 0 0 0 .884l1.333 1.25a.693.693 0 0 0 .943.001l2.666-2.5a.598.598 0 0 0 0-.883zM7.805 12.684a.7.7 0 0 0-.944-.002l-2.194 2.06-.862-.808a.699.699 0 0 0-.942 0 .598.598 0 0 0 0 .884l1.333 1.25c.13.12.3.182.47.182.171 0 .342-.061.473-.183l2.666-2.5a.598.598 0 0 0 0-.883zM12.667 8.75H10c-.368 0-.667.28-.667.625S9.632 10 10 10h2.667c.368 0 .666-.28.666-.625s-.298-.625-.666-.625zM12.667 13.75H10c-.368 0-.667.28-.667.625S9.632 15 10 15h2.667c.368 0 .666-.28.666-.625s-.298-.625-.666-.625z"/>
        <path d="M14.667 2.5H12v-.625c0-.345-.299-.625-.667-.625H9.887C9.61.522 8.869 0 8 0c-.87 0-1.61.522-1.887 1.25H4.667c-.368 0-.667.28-.667.625V2.5H1.333C.6 2.5 0 3.061 0 3.75v15C0 19.439.599 20 1.333 20h13.334C15.4 20 16 19.439 16 18.75v-15c0-.689-.599-1.25-1.333-1.25zm-9.334 0h1.334c.368 0 .666-.28.666-.625S7.632 1.25 8 1.25c.368 0 .667.28.667.625s.298.625.666.625h1.334v1.25H5.333V2.5zm9.334 16.25H1.333v-15H4v.625c0 .345.299.625.667.625h6.666c.368 0 .667-.28.667-.625V3.75h2.667v15z"/>
    </g>
</svg>
