<svg xmlns="http://www.w3.org/2000/svg" width="19" height="22" viewBox="0 0 19 22">
    <g fill="#000" fill-rule="nonzero">
        <path stroke="#000" stroke-width=".5" d="M17.885 4.584l-3.503-3.47A.396.396 0 0 0 14.104 1H2.181C1.53 1 1 1.525 1 2.17V19.79c0 .645.53 1.17 1.18 1.17h14.64c.65 0 1.18-.525 1.18-1.17V4.86a.388.388 0 0 0-.115-.276zm-3.387-2.253l2.158 2.139h-1.765a.392.392 0 0 1-.393-.39V2.33zm2.715 17.46c0 .215-.177.39-.394.39H2.181a.392.392 0 0 1-.394-.39V2.17c0-.215.177-.39.394-.39h11.53v2.3c0 .645.53 1.17 1.18 1.17h2.322V19.79z"/>
        <path d="M15.481 7.238H3.52a.392.392 0 0 0-.394.39v7.485c0 .215.176.39.394.39H15.48a.392.392 0 0 0 .394-.39V7.628a.392.392 0 0 0-.394-.39zm-9.916 7.485H3.912v-1.715h1.653v1.715zm0-2.495H3.912v-1.715h1.653v1.715zm0-2.495H3.912V8.018h1.653v1.715zm5.116 4.99H6.35v-1.715h4.33v1.715zm0-2.495H6.35v-1.715h4.33v1.715zm0-2.495H6.35V8.018h4.33v1.715zm4.407 4.99h-3.62v-1.715h3.62v1.715zm0-2.495h-3.62v-1.715h3.62v1.715zm0-2.495h-3.62V8.018h3.62v1.715z"/>
    </g>
</svg>
