<svg xmlns="http://www.w3.org/2000/svg" width="17" height="20" viewBox="0 0 17 20">
    <path fill="#000" fill-rule="nonzero" d="M7.384 13.547l-.298 2.476a.417.417 0 0 0 .118.34.49.49 0 0 0 .352.145h1.888a.49.49 0 0 0 .352-.145.416.416 0 0 0 .118-.34l-.298-2.476c.484-.325.773-.84.773-1.404 0-.963-.847-1.746-1.889-1.746s-1.889.783-1.889 1.746c0 .564.29 1.079.773 1.404zm9.144-6.642H14V5.159C14 1.789 12.145 0 8.5 0S3 1.789 3 5.159v1.746H.472C.212 6.905 0 7.1 0 7.34v10.913C0 19.217.847 20 1.889 20H15.11C16.153 20 17 19.217 17 18.254V7.341c0-.241-.211-.436-.472-.436zM12.5 4.794v2.063h-8V4.794c0-2.276 1.794-3.175 4-3.175s4 .9 4 3.175zm3 13.089c0 .445-.393.807-.875.807H2.375c-.482 0-.875-.362-.875-.807V8.195h14v9.688z"/>
</svg>
