<svg xmlns="http://www.w3.org/2000/svg" width="21" height="21" viewBox="0 0 21 21">
    <g fill="none" fill-rule="nonzero">
        <path fill="#000" d="M21 14.662A6.357 6.357 0 0 0 17.514 9c-.065 4.665-3.848 8.448-8.513 8.513A6.357 6.357 0 0 0 14.66 21c1.142 0 2.251-.304 3.226-.881l3.085.853-.853-3.085A6.315 6.315 0 0 0 21 14.662z"/>
        <path stroke="#000" stroke-width="1.176" d="M15.974 8.487C15.974 4.359 12.615 1 8.487 1S1 4.359 1 8.487c0 1.345.358 2.655 1.038 3.806l-1.01 3.653 3.653-1.01a7.464 7.464 0 0 0 3.806 1.038c4.128 0 7.487-3.359 7.487-7.487z"/>
        <path fill="#000" d="M7.74 7.855h1.532v1.532H7.74zM4.676 7.855h1.532v1.532H4.676zM10.804 7.855h1.532v1.532h-1.532z"/>
    </g>
</svg>
