<svg xmlns="http://www.w3.org/2000/svg" width="23" height="22" viewBox="0 0 23 22">
    <g fill="#000" fill-rule="nonzero" stroke="#000" stroke-width=".3">
        <path d="M11.5 5.706c-2.524 0-4.091 1.344-4.091 3.523a.44.44 0 0 0 .43.448h7.322c.238 0 .43-.2.43-.448 0-2.174-1.567-3.523-4.091-3.523zM8.3 8.78c.284-2.012 2.494-2.178 3.2-2.178s2.916.166 3.2 2.178H8.3zM11.5 1c-1.13 0-2.046.953-2.046 2.129.003 1.175.917 2.126 2.046 2.129 1.13 0 2.046-.953 2.046-2.13C13.546 1.954 12.63 1 11.5 1zm0 3.361c-.654 0-1.184-.551-1.184-1.232 0-.68.53-1.233 1.184-1.233.654 0 1.184.552 1.184 1.233 0 .68-.53 1.232-1.184 1.232zM5.091 16.966C2.568 16.966 1 18.311 1 20.49a.44.44 0 0 0 .43.448h7.322c.238 0 .43-.2.43-.448 0-2.174-1.567-3.523-4.09-3.523zm-3.2 3.075c.285-2.012 2.49-2.178 3.2-2.178.711 0 2.916.166 3.2 2.178h-6.4zM5.091 12.26c-1.13 0-2.045.954-2.045 2.13.002 1.174.917 2.126 2.045 2.128 1.13 0 2.046-.953 2.046-2.129 0-1.175-.916-2.128-2.046-2.128zm0 3.362c-.654 0-1.184-.552-1.184-1.233 0-.68.53-1.232 1.184-1.232.655 0 1.185.552 1.185 1.232 0 .681-.53 1.233-1.185 1.233zM17.909 16.966c-2.524 0-4.092 1.345-4.092 3.523a.44.44 0 0 0 .43.448h7.322c.238 0 .431-.2.431-.448 0-2.174-1.568-3.523-4.091-3.523zm-3.2 3.075c.284-2.012 2.489-2.178 3.2-2.178.71 0 2.915.166 3.2 2.178h-6.4zM17.909 12.26c-1.13 0-2.046.954-2.046 2.13.002 1.174.917 2.126 2.046 2.128 1.13 0 2.045-.953 2.045-2.129 0-1.175-.916-2.128-2.045-2.128zm0 3.362c-.655 0-1.185-.552-1.185-1.233 0-.68.53-1.232 1.185-1.232.654 0 1.184.552 1.184 1.232 0 .681-.53 1.233-1.184 1.233zM13.727 16.191l-1.796-1.878V11.67a.44.44 0 0 0-.431-.448.44.44 0 0 0-.43.448v2.644l-1.797 1.87a.463.463 0 0 0-.004.635.42.42 0 0 0 .612.005l1.619-1.69 1.62 1.69a.42.42 0 0 0 .607-.049.462.462 0 0 0 0-.583z"/>
    </g>
</svg>
