<svg xmlns="http://www.w3.org/2000/svg" width="209" height="206" viewBox="0 0 209 206">
    <g fill="none" fill-rule="nonzero" opacity=".048">
        <path fill="#32346E" d="M209 142.62c0-24.333-13.959-46.048-34.865-56.61-.65 46.652-38.473 84.476-85.126 85.125C99.572 192.041 121.287 206 145.62 206c11.408 0 22.502-3.038 32.25-8.811l30.854 8.534-8.534-30.854c5.773-9.748 8.811-20.842 8.811-32.25z"/>
        <path stroke="#32346E" stroke-width="11.765" d="M158.74 80.87C158.74 39.586 125.154 6 83.87 6 42.586 6 9 39.586 9 80.87c0 13.454 3.581 26.555 10.382 38.056L9.275 155.463l36.54-10.105c11.5 6.8 24.6 10.382 38.055 10.382 41.284 0 74.87-33.586 74.87-74.87z"/>
        <path fill="#32346E" d="M76.402 74.55h15.319v15.32H76.402zM45.765 74.55h15.318v15.32H45.765zM107.04 74.55h15.318v15.32h-15.319z"/>
    </g>
</svg>
