<svg xmlns="http://www.w3.org/2000/svg" width="112" height="24" viewBox="0 0 112 24">
    <path fill="#000" fill-rule="nonzero" d="M0 20V0h6.955c2.426 0 4.158.408 5.196 1.223 1.037.815 1.556 2.178 1.556 4.088 0 2.162-.694 3.844-2.082 5.047-1.388 1.203-3.331 1.804-5.83 1.804H4.07V20H0zM4.07 9.419h.81c1.419 0 2.54-.331 3.362-.993.822-.662 1.233-1.561 1.233-2.696 0-1.991-1.262-2.987-3.787-2.987H4.07V9.42zM22.173 20V0h4.151v17.162h8.99V20h-13.14zm19.114 0L49.05 0h4.151l7.764 20h-4.26l-2.075-5.338h-8.249L44.306 20h-3.02zm6.119-8h6.2l-3.1-7.973-3.1 7.973zm21.634 8V0h3.652l9.246 13.662V0h3.33v20h-3.72l-9.18-13.662V20H69.04zm32.986 3.514L102 20.54a9.032 9.032 0 0 0 3.33.635c.952 0 1.608-.266 1.967-.798.36-.531.54-1.486.54-2.864V0H112v17.068c0 2.459-.499 4.23-1.496 5.31-.997 1.081-2.628 1.622-4.893 1.622-1.132 0-2.327-.162-3.585-.486z"/>
</svg>
