<svg xmlns="http://www.w3.org/2000/svg" width="15" height="15" viewBox="0 0 15 15">
    <g fill="#32346E" fill-rule="nonzero">
        <path d="M7.244 3.196c-.44 0-.799.398-.799.89V7.76c0 .491.358.89.8.89.44 0 .798-.399.798-.89V4.085c0-.49-.357-.889-.799-.889z"/>
        <path d="M7.244 0C3.278 0 0 3.311 0 7.298c0 3.965 3.25 7.19 7.244 7.19 3.965 0 7.191-3.225 7.191-7.19C14.435 3.334 11.231 0 7.245 0zm0 12.89c-3.113 0-5.646-2.508-5.646-5.592 0-3.09 2.586-5.7 5.646-5.7 3.084 0 5.593 2.557 5.593 5.7a5.6 5.6 0 0 1-5.593 5.593z"/>
        <path d="M7.236 9.695a.808.808 0 0 0 0 1.614.808.808 0 0 0 0-1.614z"/>
    </g>
</svg>
